<svg width="1555" height="1132" viewBox="0 0 1555 1132" fill="none" xmlns="http://www.w3.org/2000/svg">
<path d="M394.27 874.5V937H373.762C372.378 935.21 370.791 933.379 369.001 931.507C367.211 929.635 365.217 927.967 363.02 926.502C360.822 924.956 358.422 923.735 355.817 922.84C353.213 921.863 350.406 921.375 347.395 921.375V1005.97L363.02 1009.02V1062H253.645V1009.02L269.27 1005.97V921.375C266.258 921.375 263.451 921.863 260.847 922.84C258.243 923.735 255.842 924.956 253.645 926.502C251.447 927.967 249.453 929.635 247.663 931.507C245.873 933.379 244.286 935.21 242.902 937H222.395V874.5H394.27ZM614.118 1062H536.481C534.04 1057.36 531.517 1052.44 528.913 1047.23C526.309 1042.02 523.786 1036.61 521.345 1030.99C518.903 1025.38 516.625 1019.56 514.509 1013.54C512.393 1007.52 510.603 1001.33 509.138 994.983H504.865V1062H411.115V1009.02L426.74 1005.97V930.53L411.115 927.479V874.5H517.438C531.517 874.5 543.684 875.151 553.938 876.453C564.191 877.755 572.899 879.627 580.061 882.068C587.222 884.428 593 887.358 597.395 890.857C601.87 894.275 605.329 898.182 607.771 902.576C610.293 906.889 611.962 911.65 612.775 916.858C613.671 921.985 614.118 927.438 614.118 933.216C614.118 939.075 613.549 944.406 612.409 949.207C611.351 953.927 609.439 958.281 606.672 962.269C603.905 966.256 600.121 969.918 595.319 973.255C590.518 976.51 584.414 979.603 577.009 982.532C578.555 985.787 580.874 989.612 583.967 994.007C587.059 998.32 590.396 1002.76 593.977 1007.31C597.557 1011.79 601.138 1016.18 604.719 1020.5C608.381 1024.73 611.514 1028.35 614.118 1031.36V1062ZM504.865 958.973C509.585 958.973 513.858 958.769 517.683 958.362C521.589 957.955 524.885 957.02 527.57 955.555C530.337 954.09 532.453 951.933 533.918 949.085C535.383 946.237 536.115 942.412 536.115 937.61C536.115 932.89 535.383 929.147 533.918 926.38C532.453 923.532 530.337 921.334 527.57 919.788C524.885 918.242 521.589 917.225 517.683 916.736C513.858 916.248 509.585 916.004 504.865 916.004V958.973ZM635.725 874.5H745.1V927.479L729.475 930.53V1005.97L745.1 1009.02V1062H635.725V1009.02L651.35 1005.97V930.53L635.725 927.479V874.5ZM827.863 1062.12L777.937 930.408L759.382 927.479V874.5H873.396V927.479L859.968 930.408L881.086 999.866L902.204 930.408L888.776 927.479V874.5H983.137V927.479L964.704 930.408L914.777 1062.12H827.863ZM997.541 874.5H1106.92V927.479L1091.29 930.53V1005.97L1106.92 1009.02V1062H997.541V1009.02L1013.17 1005.97V930.53L997.541 927.479V874.5ZM1259.87 1062L1253.28 1030.51H1202.25L1195.78 1062H1126.33V1000.48L1141.34 997.425L1177.35 874.5H1278.18L1314.31 997.425L1329.33 1000.48V1062H1259.87ZM1212.75 988.636H1242.78L1227.77 917.957L1212.75 988.636Z" fill="#FF8642"/>
<path d="M27.9883 611.5H137.363V664.723L121.738 667.774V690.846H184.238V667.774L168.613 664.723V611.5H277.988V664.723L262.363 667.774V742.97L277.988 746.021V799H168.613V746.021L184.238 742.97V718.434H121.738V742.97L137.363 746.021V799H27.9883V746.021L43.6133 742.97V667.774L27.9883 664.723V611.5ZM396.641 752.125C402.174 752.125 407.383 751.677 412.266 750.782C417.148 749.806 421.624 748.585 425.693 747.12C429.844 745.655 433.587 743.987 436.924 742.115C440.26 740.243 443.19 738.372 445.713 736.5H466.099V799H302.891V746.021L318.516 742.97V667.774L302.891 664.723V611.5H466.099V674H446.445C443.841 672.21 440.83 670.379 437.412 668.507C433.994 666.635 430.169 664.967 425.938 663.502C421.787 661.956 417.271 660.735 412.388 659.84C407.505 658.863 402.256 658.375 396.641 658.375V691.7L433.262 683.766V726.979L396.641 719.044V752.125ZM613.315 799L606.724 767.506H555.698L549.229 799H479.771V737.477L494.785 734.425L530.796 611.5H631.626L667.759 734.425L682.773 737.477V799H613.315ZM566.196 725.636H596.226L581.211 654.957L566.196 725.636ZM796.055 752.125C799.961 752.125 803.623 751.677 807.041 750.782C810.459 749.806 813.633 748.585 816.562 747.12C819.492 745.655 822.137 743.987 824.497 742.115C826.938 740.243 829.054 738.372 830.845 736.5H851.23V799H702.305V746.021L717.93 742.97V667.53L702.305 664.479V611.5H811.68V664.479L796.055 667.53V752.125ZM1022.86 611.5V674H1002.35C1000.97 672.21 999.383 670.379 997.593 668.507C995.802 666.635 993.809 664.967 991.611 663.502C989.414 661.956 987.013 660.735 984.409 659.84C981.805 658.863 978.997 658.375 975.986 658.375V742.97L991.611 746.021V799H882.236V746.021L897.861 742.97V658.375C894.85 658.375 892.043 658.863 889.438 659.84C886.834 660.735 884.434 661.956 882.236 663.502C880.039 664.967 878.045 666.635 876.255 668.507C874.465 670.379 872.878 672.21 871.494 674H850.986V611.5H1022.86ZM1039.71 611.5H1149.08V664.723L1133.46 667.774V690.846H1195.96V667.774L1180.33 664.723V611.5H1289.71V664.723L1274.08 667.774V742.97L1289.71 746.021V799H1180.33V746.021L1195.96 742.97V718.434H1133.46V742.97L1149.08 746.021V799H1039.71V746.021L1055.33 742.97V667.774L1039.71 664.723V611.5ZM1361.73 799V746.266L1377.35 742.359L1323.76 667.408L1303.99 664.479V611.5H1408.24V664.479L1396.03 667.408L1420.81 705.738L1445.59 667.408L1433.38 664.479V611.5H1537.51V664.479L1517.86 667.408L1464.27 742.359L1479.89 746.266V799H1361.73Z" fill="#FF8642"/>
<rect x="463.213" y="81.115" width="301" height="301" rx="18" transform="rotate(9 463.213 81.115)" stroke="#FF8642" stroke-width="26"/>
<g clip-path="url(#clip0)">
<path d="M601.698 154.672C635.867 160.084 667.015 181.148 661.053 218.789C655.555 253.5 613.665 260.549 603.136 271.738C595.246 280.052 595.311 293.501 577.691 290.71C566.213 288.892 562.085 278.668 563.438 270.126C568.473 238.338 616.318 238.541 620.464 212.366C622.746 197.959 614.51 187.898 598.484 185.36C564.315 179.948 572.078 217.289 546.199 213.19C536.857 211.71 529.725 204.834 531.416 194.162C535.556 167.98 569.123 149.513 601.698 154.672ZM576.017 308.21C588.012 310.11 596.346 321.543 594.44 333.575C592.535 345.607 581.094 353.908 569.081 352.005C557.067 350.103 548.744 338.685 550.652 326.64C552.556 314.614 564.004 306.308 576.017 308.21Z" fill="#FF8642"/>
</g>
<rect x="713.182" y="66.7704" width="380" height="380" rx="20" transform="rotate(-7.5 713.182 66.7704)" stroke="#FF8642" stroke-width="30"/>
<g clip-path="url(#clip1)">
<path d="M904.799 95.4528C951.96 89.2439 1001.25 104.851 1008.09 156.803C1014.4 204.713 961.924 230.365 952.413 249.229C945.256 263.271 950.595 280.976 926.275 284.178C910.433 286.264 900.998 274.396 899.446 262.606C893.669 218.731 956.827 200.315 952.07 164.187C949.452 144.302 934.666 134.254 912.546 137.166C865.385 143.375 890.202 189.573 854.483 194.275C841.589 195.973 829.501 189.692 827.562 174.962C822.796 138.827 859.838 101.372 904.799 95.4528ZM930.902 307.903C947.457 305.724 962.91 317.542 965.096 334.149C967.283 350.756 955.442 366.167 938.86 368.35C922.279 370.533 906.846 358.73 904.658 342.106C902.472 325.507 914.321 310.086 930.902 307.903Z" fill="#FF8642"/>
</g>
<defs>
<clipPath id="clip0">
<rect width="200" height="200" fill="white" transform="translate(505.597 139.451) rotate(9)"/>
</clipPath>
<clipPath id="clip1">
<rect width="275" height="275" fill="white" transform="translate(772.158 112.915) rotate(-7.5)"/>
</clipPath>
</defs>
</svg>
