<svg width="1680" height="512" viewBox="0 0 1680 512" fill="none" xmlns="http://www.w3.org/2000/svg">
<path d="M430 129C438.178 129 445.588 132.277 451 137.583V61H370.417C375.723 55.588 379 48.178 379 40C379 23.431 365.569 10 349 10C332.431 10 319 23.431 319 40C319 48.178 322.277 55.588 327.583 61H256V136.583C261.412 131.276 268.822 128 277 128C293.569 128 307 141.431 307 158C307 174.569 293.569 188 277 188C268.822 188 261.412 184.723 256 179.417V256H328.583C323.276 261.412 320 268.822 320 277C320 293.569 333.431 307 350 307C366.569 307 380 293.569 380 277C380 268.822 376.723 261.412 371.417 256H451V180.417C445.588 185.724 438.178 189 430 189C413.431 189 400 175.569 400 159C400 142.431 413.431 129 430 129Z" fill="white"/>
<path d="M472 323C463.822 323 456.412 326.277 451 331.583V256H371.417C376.724 261.412 380 268.822 380 277C380 293.569 366.569 307 350 307C333.431 307 320 293.569 320 277C320 268.822 323.277 261.412 328.583 256H256V332.583C250.588 327.276 243.178 324 235 324C218.431 324 205 337.431 205 354C205 370.569 218.431 384 235 384C243.178 384 250.588 380.723 256 375.417V451H327.583C322.276 445.588 319 438.178 319 430C319 413.431 332.431 400 349 400C365.569 400 379 413.431 379 430C379 438.178 375.723 445.588 370.417 451H451V374.417C456.412 379.724 463.822 383 472 383C488.569 383 502 369.569 502 353C502 336.431 488.569 323 472 323Z" fill="#FF8642"/>
<path d="M235 324C243.178 324 250.588 327.277 256 332.583V256H179.417C184.724 250.588 188 243.178 188 235C188 218.431 174.569 205 158 205C141.431 205 128 218.431 128 235C128 243.178 131.277 250.588 136.583 256H61V331.583C66.412 326.277 73.822 323 82 323C98.569 323 112 336.431 112 353C112 369.569 98.569 383 82 383C73.822 383 66.412 379.723 61 374.417V451H137.583C132.276 456.412 129 463.822 129 472C129 488.569 142.431 502 159 502C175.569 502 189 488.569 189 472C189 463.822 185.723 456.412 180.417 451H256V375.417C250.588 380.724 243.178 384 235 384C218.431 384 205 370.569 205 354C205 337.431 218.431 324 235 324Z" fill="white"/>
<path d="M277 128C268.822 128 261.412 131.277 256 136.583V61H180.417C185.723 66.412 189 73.822 189 82C189 98.569 175.569 112 159 112C142.431 112 129 98.569 129 82C129 73.822 132.277 66.412 137.583 61H61V137.583C55.588 132.277 48.178 129 40 129C23.431 129 10 142.431 10 159C10 175.569 23.431 189 40 189C48.178 189 55.588 185.723 61 180.417V256H136.583C131.276 250.588 128 243.178 128 235C128 218.431 141.431 205 158 205C174.569 205 188 218.431 188 235C188 243.178 184.723 250.588 179.417 256H256V179.417C261.412 184.724 268.822 188 277 188C293.569 188 307 174.569 307 158C307 141.431 293.569 128 277 128Z" fill="#FF8642"/>
<path d="M472 313C468.23 313 464.536 313.521 461 314.528C461 314.528 461 180.59 461 180.417C461 171.872 450.127 167.269 443.998 173.277C440.235 176.967 435.264 179 430 179C418.972 179 410 170.028 410 159C410 147.972 418.972 139 430 139C435.263 139 440.234 141.032 443.997 144.722C450.188 150.792 461 146.213 461 137.583V61C461 55.477 456.523 51 451 51H387.472C388.479 47.464 389 43.77 389 40C389 17.944 371.056 0 349 0C326.944 0 309 17.944 309 40C309 43.77 309.521 47.464 310.528 51C310.528 51 180.569 51 180.417 51C171.718 51 167.195 61.799 173.277 68.002C176.967 71.765 179 76.736 179 82C179 93.028 170.028 102 159 102C147.972 102 139 93.028 139 82C139 76.736 141.033 71.765 144.723 68.002C150.682 61.925 146.375 51 137.583 51H61C55.477 51 51 55.477 51 61V120.528C47.464 119.521 43.77 119 40 119C17.944 119 0 136.944 0 159C0 181.056 17.944 199 40 199C43.77 199 47.464 198.479 51 197.472C51 197.472 51 331.408 51 331.583C51 340.219 61.825 344.78 68.002 338.723C71.765 335.033 76.736 333 82 333C93.028 333 102 341.972 102 353C102 364.028 93.028 373 82 373C76.737 373 71.766 370.968 68.003 367.278C61.824 361.219 51 365.794 51 374.417V451C51 456.523 55.477 461 61 461H120.528C119.521 464.536 119 468.23 119 472C119 494.056 136.944 512 159 512C181.056 512 199 494.056 199 472C199 468.23 198.479 464.536 197.472 461C197.472 461 327.45 461 327.583 461C336.118 461 340.723 450.117 334.723 443.998C331.033 440.235 329 435.264 329 430C329 418.972 337.972 410 349 410C360.028 410 369 418.972 369 430C369 435.263 366.968 440.234 363.277 443.997C357.25 450.144 361.839 461 370.416 461H451C456.523 461 461 456.523 461 451V391.472C464.536 392.479 468.23 393 472 393C494.056 393 512 375.056 512 353C512 330.944 494.056 313 472 313ZM327.583 71C336.265 71 340.799 60.194 334.723 53.998C331.033 50.235 329 45.264 329 40C329 28.972 337.972 20 349 20C360.028 20 369 28.972 369 40C369 45.263 366.968 50.234 363.278 53.997C357.227 60.168 361.814 71 370.417 71H441V120.528C437.464 119.521 433.77 119 430 119C407.944 119 390 136.944 390 159C390 181.056 407.944 199 430 199C433.77 199 437.464 198.479 441 197.472V246C441 246 371.589 246 371.417 246C362.837 246 358.252 256.858 364.277 263.002C367.967 266.765 370 271.736 370 277C370 288.028 361.028 297 350 297C338.972 297 330 288.028 330 277C330 271.737 332.032 266.766 335.722 263.003C341.735 256.87 337.163 246 328.583 246H266V196.472C269.536 197.479 273.23 198 277 198C299.056 198 317 180.056 317 158C317 135.944 299.056 118 277 118C273.23 118 269.536 118.521 266 119.528V71C266 71 327.495 71 327.583 71ZM40 179C28.972 179 20 170.028 20 159C20 147.972 28.972 139 40 139C45.263 139 50.234 141.033 53.998 144.723C60.162 150.767 71 146.206 71 137.583V71H120.528C119.521 74.536 119 78.23 119 82C119 104.056 136.944 122 159 122C181.056 122 199 104.056 199 82C199 78.23 198.479 74.536 197.472 71H246C246 71 246 136.422 246 136.583C246 145.226 256.83 149.774 263.002 143.723C266.765 140.033 271.736 138 277 138C288.028 138 297 146.972 297 158C297 169.028 288.028 178 277 178C271.737 178 266.766 175.968 263.003 172.278C256.833 166.228 246 170.802 246 179.417V246H196.472C197.479 242.464 198 238.77 198 235C198 212.944 180.056 195 158 195C135.944 195 118 212.944 118 235C118 238.77 118.521 242.464 119.528 246H71C71 246 71 180.558 71 180.417C71 171.779 60.174 167.222 53.998 173.277C50.235 176.967 45.264 179 40 179ZM180.417 441C171.857 441 167.269 451.875 173.277 458.002C176.967 461.765 179 466.736 179 472C179 483.028 170.028 492 159 492C147.972 492 139 483.028 139 472C139 466.737 141.032 461.766 144.722 458.003C150.747 451.858 146.176 441 137.583 441H71V391.472C74.536 392.479 78.23 393 82 393C104.056 393 122 375.056 122 353C122 330.944 104.056 313 82 313C78.23 313 74.536 313.521 71 314.528V266C71 266 136.417 266 136.583 266C145.177 266 149.756 255.15 143.723 248.998C140.033 245.235 138 240.264 138 235C138 223.972 146.972 215 158 215C169.028 215 178 223.972 178 235C178 240.263 175.967 245.234 172.277 248.998C166.263 255.131 170.836 266 179.416 266H246V315.528C242.464 314.521 238.77 314 235 314C212.944 314 195 331.944 195 354C195 376.056 212.944 394 235 394C238.77 394 242.464 393.479 246 392.472V441C246 441 180.56 441 180.417 441ZM472 373C466.737 373 461.766 370.968 458.003 367.278C451.853 361.248 441 365.822 441 374.417V441H387.472C388.479 437.464 389 433.77 389 430C389 407.944 371.056 390 349 390C326.944 390 309 407.944 309 430C309 433.77 309.521 437.464 310.528 441H266C266 441 266 375.564 266 375.417C266 366.783 255.16 362.237 248.998 368.277C245.235 371.967 240.264 374 235 374C223.972 374 215 365.028 215 354C215 342.972 223.972 334 235 334C240.264 334 245.235 336.033 248.998 339.723C255.004 345.613 266 341.327 266 332.584V266H311.528C310.521 269.536 310 273.23 310 277C310 299.056 327.944 317 350 317C372.056 317 390 299.056 390 277C390 273.23 389.479 269.536 388.472 266H441C441 266 441 331.456 441 331.583C441 340.228 451.813 344.791 458.002 338.723C461.765 335.033 466.736 333 472 333C483.028 333 492 341.972 492 353C492 364.028 483.028 373 472 373Z" fill="#FF8642"/>
<path d="M647.375 265V313H631.625C630.562 311.625 629.344 310.219 627.969 308.781C626.594 307.344 625.062 306.062 623.375 304.938C621.688 303.75 619.844 302.812 617.844 302.125C615.844 301.375 613.688 301 611.375 301V365.969L623.375 368.312V409H539.375V368.312L551.375 365.969V301C549.062 301 546.906 301.375 544.906 302.125C542.906 302.812 541.062 303.75 539.375 304.938C537.688 306.062 536.156 307.344 534.781 308.781C533.406 310.219 532.188 311.625 531.125 313H515.375V265H647.375ZM816.219 409H756.594C754.719 405.438 752.781 401.656 750.781 397.656C748.781 393.656 746.844 389.5 744.969 385.188C743.094 380.875 741.344 376.406 739.719 371.781C738.094 367.156 736.719 362.406 735.594 357.531H732.312V409H660.312V368.312L672.312 365.969V308.031L660.312 305.688V265H741.969C752.781 265 762.125 265.5 770 266.5C777.875 267.5 784.562 268.938 790.062 270.812C795.562 272.625 800 274.875 803.375 277.562C806.812 280.188 809.469 283.188 811.344 286.562C813.281 289.875 814.562 293.531 815.188 297.531C815.875 301.469 816.219 305.656 816.219 310.094C816.219 314.594 815.781 318.688 814.906 322.375C814.094 326 812.625 329.344 810.5 332.406C808.375 335.469 805.469 338.281 801.781 340.844C798.094 343.344 793.406 345.719 787.719 347.969C788.906 350.469 790.688 353.406 793.062 356.781C795.438 360.094 798 363.5 800.75 367C803.5 370.438 806.25 373.812 809 377.125C811.812 380.375 814.219 383.156 816.219 385.469V409ZM732.312 329.875C735.938 329.875 739.219 329.719 742.156 329.406C745.156 329.094 747.688 328.375 749.75 327.25C751.875 326.125 753.5 324.469 754.625 322.281C755.75 320.094 756.312 317.156 756.312 313.469C756.312 309.844 755.75 306.969 754.625 304.844C753.5 302.656 751.875 300.969 749.75 299.781C747.688 298.594 745.156 297.812 742.156 297.438C739.219 297.062 735.938 296.875 732.312 296.875V329.875ZM832.812 265H916.812V305.688L904.812 308.031V365.969L916.812 368.312V409H832.812V368.312L844.812 365.969V308.031L832.812 305.688V265ZM980.375 409.094L942.031 307.938L927.781 305.688V265H1015.34V305.688L1005.03 307.938L1021.25 361.281L1037.47 307.938L1027.16 305.688V265H1099.62V305.688L1085.47 307.938L1047.12 409.094H980.375ZM1110.69 265H1194.69V305.688L1182.69 308.031V365.969L1194.69 368.312V409H1110.69V368.312L1122.69 365.969V308.031L1110.69 305.688V265ZM1312.16 409L1307.09 384.812H1267.91L1262.94 409H1209.59V361.75L1221.12 359.406L1248.78 265H1326.22L1353.97 359.406L1365.5 361.75V409H1312.16ZM1275.97 352.656H1299.03L1287.5 298.375L1275.97 352.656Z" fill="#FF8642"/>
<path d="M511.562 86H595.562V126.875L583.562 129.219V146.938H631.562V129.219L619.562 126.875V86H703.562V126.875L691.562 129.219V186.969L703.562 189.312V230H619.562V189.312L631.562 186.969V168.125H583.562V186.969L595.562 189.312V230H511.562V189.312L523.562 186.969V129.219L511.562 126.875V86ZM794.688 194C798.938 194 802.938 193.656 806.688 192.969C810.438 192.219 813.875 191.281 817 190.156C820.188 189.031 823.062 187.75 825.625 186.312C828.188 184.875 830.438 183.438 832.375 182H848.031V230H722.688V189.312L734.688 186.969V129.219L722.688 126.875V86H848.031V134H832.938C830.938 132.625 828.625 131.219 826 129.781C823.375 128.344 820.438 127.062 817.188 125.938C814 124.75 810.531 123.812 806.781 123.125C803.031 122.375 799 122 794.688 122V147.594L822.812 141.5V174.688L794.688 168.594V194ZM961.094 230L956.031 205.812H916.844L911.875 230H858.531V182.75L870.062 180.406L897.719 86H975.156L1002.91 180.406L1014.44 182.75V230H961.094ZM924.906 173.656H947.969L936.438 119.375L924.906 173.656ZM1101.44 194C1104.44 194 1107.25 193.656 1109.88 192.969C1112.5 192.219 1114.94 191.281 1117.19 190.156C1119.44 189.031 1121.47 187.75 1123.28 186.312C1125.16 184.875 1126.78 183.438 1128.16 182H1143.81V230H1029.44V189.312L1041.44 186.969V129.031L1029.44 126.688V86H1113.44V126.688L1101.44 129.031V194ZM1275.62 86V134H1259.88C1258.81 132.625 1257.59 131.219 1256.22 129.781C1254.84 128.344 1253.31 127.062 1251.62 125.938C1249.94 124.75 1248.09 123.812 1246.09 123.125C1244.09 122.375 1241.94 122 1239.62 122V186.969L1251.62 189.312V230H1167.62V189.312L1179.62 186.969V122C1177.31 122 1175.16 122.375 1173.16 123.125C1171.16 123.812 1169.31 124.75 1167.62 125.938C1165.94 127.062 1164.41 128.344 1163.03 129.781C1161.66 131.219 1160.44 132.625 1159.38 134H1143.62V86H1275.62ZM1288.56 86H1372.56V126.875L1360.56 129.219V146.938H1408.56V129.219L1396.56 126.875V86H1480.56V126.875L1468.56 129.219V186.969L1480.56 189.312V230H1396.56V189.312L1408.56 186.969V168.125H1360.56V186.969L1372.56 189.312V230H1288.56V189.312L1300.56 186.969V129.219L1288.56 126.875V86ZM1535.88 230V189.5L1547.88 186.5L1506.72 128.938L1491.53 126.688V86H1571.59V126.688L1562.22 128.938L1581.25 158.375L1600.28 128.938L1590.91 126.688V86H1670.88V126.688L1655.78 128.938L1614.62 186.5L1626.62 189.5V230H1535.88Z" fill="#FF8642"/>
</svg>
